<svg width="61" height="60" viewBox="0 0 61 60" fill="none" xmlns="http://www.w3.org/2000/svg">
<path d="M6.5 2L7.40909 7M8 56L9.5 31.5C9.5 31.5 10 25 9.5 18.5C9 12 7.40909 7 7.40909 7M8 56C8 56 9.9379 56.9142 11.5 57.5M8 56L7.4375 54.5M11.5 57.5C13.0621 47.5416 15 35.5 15.5 32C16 28.5 15 10 15 10M11.5 57.5C13.7748 58.6511 20 59.5 22.5 59C25 58.5 26 56 26 56L26.5 49.5M7.40909 7L6.5 32L7.4375 54.5M1 55.5L7.4375 54.5M26.5 49.5L39.5 50.5M26.5 49.5V34V18.5M26.5 18.5L17.5 2M26.5 18.5L23 2M39.5 50.5C39.5 50.5 39.7597 52.7865 40.5 54C42.3997 57.1141 49.5 56.5 49.5 56.5C49.5 56.5 56.7198 56.23 59 53C61.1425 49.9649 59.5 43.5 59.5 43.5C59.5 43.5 56.7574 36.491 55 32M39.5 50.5L37 2L44 12.5M55 32C51.4853 25.7516 46 16 46 16M55 32C54.0237 20.2843 52.5 2 52.5 2M46 16L44 12.5M46 16V2L44 12.5" stroke="black"/>
</svg>
